<svg width="71" height="71" viewBox="0 0 71 71" fill="none" xmlns="http://www.w3.org/2000/svg">
<path d="M69.0278 55.2103V21.6826C69.0278 19.5903 68.1966 17.5837 66.7172 16.1043C65.2377 14.6248 63.2312 13.7937 61.1389 13.7937H46.6233C46.1481 11.9057 45.4113 10.0934 44.4342 8.40951C42.5515 5.05911 39.8338 2.25303 36.5453 0.264228C36.2455 0.0911289 35.9054 0 35.5592 0C35.213 0 34.8729 0.0911289 34.5731 0.264228C29.5275 3.25338 25.8691 8.11703 24.3964 13.7937H9.86111C7.76885 13.7937 5.76228 14.6248 4.28282 16.1043C2.80337 17.5837 1.97222 19.5903 1.97222 21.6826V55.2103C1.44916 55.2103 0.947514 55.4181 0.577651 55.788C0.207787 56.1579 0 56.6595 0 57.1826V63.0992C0 65.1915 0.831148 67.1981 2.3106 68.6775C3.79006 70.157 5.79663 70.9881 7.88889 70.9881H63.1111C65.2034 70.9881 67.2099 70.157 68.6894 68.6775C70.1688 67.1981 71 65.1915 71 63.0992V57.1826C71 56.6595 70.7922 56.1579 70.4224 55.788C70.0525 55.4181 69.5508 55.2103 69.0278 55.2103ZM35.5 21.6826C36.6702 21.6826 37.8141 22.0296 38.7871 22.6797C39.7601 23.3298 40.5185 24.2539 40.9663 25.335C41.4141 26.4161 41.5313 27.6058 41.303 28.7535C41.0747 29.9012 40.5112 30.9555 39.6837 31.7829C38.8563 32.6104 37.802 33.1739 36.6543 33.4022C35.5066 33.6305 34.3169 33.5133 33.2358 33.0655C32.1547 32.6177 31.2306 31.8593 30.5805 30.8863C29.9303 29.9134 29.5833 28.7694 29.5833 27.5992C29.5833 26.03 30.2067 24.5251 31.3163 23.4155C32.4259 22.3059 33.9308 21.6826 35.5 21.6826ZM46.9981 64.184C46.8194 64.4553 46.5765 64.6782 46.2909 64.833C46.0053 64.9879 45.6859 65.0698 45.3611 65.0714H25.6389C25.314 65.0698 24.9947 64.9879 24.7091 64.833C24.4235 64.6782 24.1806 64.4553 24.0019 64.184L20.6492 59.1548H25.3825L26.7039 61.127H44.2961L45.6175 59.1548H50.3508L46.9981 64.184ZM65.0833 55.2103H5.91667V21.6826C5.91667 20.6364 6.33224 19.6331 7.07197 18.8934C7.8117 18.1537 8.81498 17.7381 9.86111 17.7381H23.6667C23.6667 17.8367 23.6667 17.9353 23.6667 18.0339C23.6667 18.4876 23.6667 18.9412 23.6667 19.3751V25.8045C20.9114 26.2702 18.4098 27.696 16.6049 29.8294C14.8 31.9627 13.8084 34.6659 13.8056 37.4603V43.377C13.8056 43.9001 14.0133 44.4017 14.3832 44.7716C14.7531 45.1414 15.2547 45.3492 15.7778 45.3492C16.0278 45.3529 16.2761 45.3059 16.5075 45.2112L25.4022 41.6415C26.1969 42.4389 27.2027 42.9931 28.3014 43.239L30.7864 48.209C30.9503 48.5342 31.201 48.8077 31.5109 48.9992C31.8207 49.1906 32.1775 49.2926 32.5417 49.2937H38.4583C38.8225 49.2926 39.1793 49.1906 39.4891 48.9992C39.799 48.8077 40.0497 48.5342 40.2136 48.209L42.6986 43.239C43.7973 42.9931 44.8031 42.4389 45.5978 41.6415L54.4925 45.2112C54.7239 45.3059 54.9722 45.3529 55.2222 45.3492C55.7453 45.3492 56.2469 45.1414 56.6168 44.7716C56.9867 44.4017 57.1944 43.9001 57.1944 43.377V37.4603C57.1916 34.6659 56.2 31.9627 54.3951 29.8294C52.5902 27.696 50.0886 26.2702 47.3333 25.8045V19.3751C47.3333 18.8426 47.3333 18.2903 47.3333 17.7381H61.1389C62.185 17.7381 63.1883 18.1537 63.928 18.8934C64.6678 19.6331 65.0833 20.6364 65.0833 21.6826V55.2103Z" fill="#DC143C"/>
<path d="M43.3889 53.2381C44.4781 53.2381 45.3611 52.3551 45.3611 51.2659C45.3611 50.1766 44.4781 49.2936 43.3889 49.2936C42.2997 49.2936 41.4167 50.1766 41.4167 51.2659C41.4167 52.3551 42.2997 53.2381 43.3889 53.2381Z" fill="#DC143C"/>
<path d="M51.2778 53.2381C52.367 53.2381 53.25 52.3551 53.25 51.2659C53.25 50.1766 52.367 49.2936 51.2778 49.2936C50.1886 49.2936 49.3056 50.1766 49.3056 51.2659C49.3056 52.3551 50.1886 53.2381 51.2778 53.2381Z" fill="#DC143C"/>
<path d="M59.1667 53.2381C60.2559 53.2381 61.1389 52.3551 61.1389 51.2659C61.1389 50.1766 60.2559 49.2936 59.1667 49.2936C58.0774 49.2936 57.1944 50.1766 57.1944 51.2659C57.1944 52.3551 58.0774 53.2381 59.1667 53.2381Z" fill="#DC143C"/>
</svg>
